<?xml version="1.0" standalone="no"?>
<!DOCTYPE svg PUBLIC "-//W3C//DTD SVG 20010904//EN"
 "http://www.w3.org/TR/2001/REC-SVG-20010904/DTD/svg10.dtd">
<svg version="1.0" xmlns="http://www.w3.org/2000/svg"
 width="192.000000pt" height="192.000000pt" viewBox="0 0 192.000000 192.000000"
 preserveAspectRatio="xMidYMid meet">
<metadata>
Created by potrace 1.11, written by Peter Selinger 2001-2013
</metadata>
<g transform="translate(0.000000,192.000000) scale(0.100000,-0.100000)"
fill="#000000" stroke="none">
<path d="M822 1878 c-157 -22 -342 -106 -472 -213 -240 -198 -373 -537 -330
-840 75 -535 576 -902 1104 -810 308 54 553 234 691 510 81 160 98 236 98 420
0 184 -17 260 -98 420 -113 227 -312 398 -550 474 -148 48 -294 61 -443 39z
m229 -613 c57 -20 76 -35 83 -66 12 -48 -6 -52 -70 -18 -107 56 -202 28 -250
-75 -44 -94 -29 -273 28 -333 55 -58 153 -66 235 -17 55 32 65 31 61 -8 -6
-59 -105 -105 -209 -95 -149 13 -229 119 -229 301 0 165 59 270 178 312 50 18
119 17 173 -1z m-411 -30 l0 -35 -90 0 -90 0 -2 -267 -3 -268 -40 0 -40 0 -3
267 -2 267 -88 3 -87 3 -3 33 -3 32 225 0 226 0 0 -35z m718 17 c16 -16 214
-370 244 -437 11 -25 14 1 18 210 l5 240 35 0 35 0 0 -300 0 -300 -41 -3 c-34
-2 -45 1 -60 21 -11 13 -75 125 -144 250 l-125 225 -5 -246 -5 -247 -35 0 -35
0 -3 289 c-2 205 1 293 9 302 17 20 85 18 107 -4z"/>
</g>
</svg>
